<svg version="1.1" id="Layer_1" xmlns="http://www.w3.org/2000/svg" xmlns:xlink="http://www.w3.org/1999/xlink" x="0px" y="0px" width="100%" viewBox="0 0 2986 1352" enable-background="new 0 0 2986 1352" xml:space="preserve">
<path fill="#FFFFFF" opacity="1.000000" stroke="none" d="&#xA;M1617.705078,690.652344 &#xA;&#x9;C1622.513550,683.463867 1627.091064,676.547607 1631.986938,669.150269 &#xA;&#x9;C1632.648438,669.150269 1634.107056,669.150269 1635.656860,669.150269 &#xA;&#x9;C1635.797363,668.717041 1636.051636,668.267883 1636.077271,667.806030 &#xA;&#x9;C1636.977051,651.560852 1644.643066,639.182678 1657.424683,629.469177 &#xA;&#x9;C1673.068359,617.580322 1691.140747,610.892883 1709.532227,605.084839 &#xA;&#x9;C1729.803589,598.683105 1750.315796,593.044983 1770.722168,587.070984 &#xA;&#x9;C1772.119995,586.661743 1773.509644,586.224548 1774.762207,585.843262 &#xA;&#x9;C1775.826050,559.392334 1764.613770,540.708557 1743.113892,533.385193 &#xA;&#x9;C1728.608887,528.444397 1713.976440,529.077026 1699.407104,533.476074 &#xA;&#x9;C1683.106689,538.397888 1670.134521,548.217285 1659.002075,560.773071 &#xA;&#x9;C1657.913086,562.001221 1656.836914,563.240784 1655.664307,564.578125 &#xA;&#x9;C1654.270142,563.378418 1653.146240,562.411377 1651.508911,561.002441 &#xA;&#x9;C1654.068604,558.103088 1656.447632,555.182983 1659.058472,552.487305 &#xA;&#x9;C1677.448853,533.499817 1698.808838,519.783630 1725.393799,515.491272 &#xA;&#x9;C1740.375244,513.072327 1755.323730,513.371216 1770.005127,517.260376 &#xA;&#x9;C1796.297974,524.225403 1809.584595,542.733093 1813.911133,568.489868 &#xA;&#x9;C1815.255859,576.495178 1815.735107,584.720215 1815.806641,592.851685 &#xA;&#x9;C1816.055664,621.180908 1815.838257,649.514038 1816.069214,677.843506 &#xA;&#x9;C1816.121826,684.302307 1817.082886,690.776245 1817.945557,697.200256 &#xA;&#x9;C1819.093140,705.747253 1823.272583,712.169495 1831.895264,715.141479 &#xA;&#x9;C1831.895264,717.014404 1831.895264,718.789673 1831.895264,720.834534 &#xA;&#x9;C1817.350342,720.834534 1802.867554,721.212769 1788.416870,720.694336 &#xA;&#x9;C1779.593506,720.377747 1775.085083,714.650879 1775.034180,705.200073 &#xA;&#x9;C1774.928345,685.535339 1774.997192,665.869751 1774.994263,646.204468 &#xA;&#x9;C1774.994019,644.373779 1774.994385,642.543091 1774.380249,640.544861 &#xA;&#x9;C1773.240967,644.178101 1772.189331,647.841614 1770.947998,651.439636 &#xA;&#x9;C1763.246094,673.761963 1752.640991,694.252441 1733.985596,709.619812 &#xA;&#x9;C1710.239868,729.180420 1677.365479,730.267517 1654.165405,712.356140 &#xA;&#x9;C1644.013550,704.518494 1638.641602,694.010071 1635.894897,681.587830 &#xA;&#x9;C1635.037231,694.569336 1634.179565,707.550842 1633.307129,720.756592 &#xA;&#x9;C1568.457275,720.756592 1503.891113,720.756592 1439.369995,720.756592 &#xA;&#x9;C1438.590088,717.342468 1439.036621,715.206055 1442.677612,713.646606 &#xA;&#x9;C1448.596069,711.111572 1451.670044,705.799011 1452.833618,699.659363 &#xA;&#x9;C1453.884399,694.116394 1454.925415,688.458191 1454.937012,682.848755 &#xA;&#x9;C1455.080688,613.190796 1455.083130,543.532288 1454.948853,473.874298 &#xA;&#x9;C1454.937988,468.263397 1453.923584,462.604553 1452.889526,457.058624 &#xA;&#x9;C1451.712769,450.747284 1448.523682,445.624878 1442.536743,442.583496 &#xA;&#x9;C1438.768677,440.669281 1438.804565,440.598663 1439.541260,435.529175 &#xA;&#x9;C1464.467896,435.529175 1489.423462,435.529175 1514.784790,435.529175 &#xA;&#x9;C1514.873657,437.324036 1514.959839,439.065369 1515.060425,441.098785 &#xA;&#x9;C1504.229004,444.565674 1500.999146,453.289368 1500.090576,463.210754 &#xA;&#x9;C1499.302124,471.822906 1498.831909,480.495575 1498.818970,489.142395 &#xA;&#x9;C1498.718628,556.137451 1498.760498,623.132690 1498.774292,690.127930 &#xA;&#x9;C1498.774780,692.791870 1498.759033,695.475769 1499.056152,698.116028 &#xA;&#x9;C1499.922852,705.819336 1504.628784,712.299377 1511.902588,712.694824 &#xA;&#x9;C1539.302490,714.184448 1566.852905,716.298645 1593.623535,707.580627 &#xA;&#x9;C1603.194824,704.463745 1610.987549,698.573242 1617.705078,690.652344 &#xA;M1773.058716,621.436890 &#xA;&#x9;C1773.942993,611.705872 1774.827271,601.974854 1775.813110,591.126953 &#xA;&#x9;C1750.131958,599.885437 1724.098877,603.455322 1701.428589,616.695740 &#xA;&#x9;C1695.071777,620.408386 1688.967285,625.171814 1684.067017,630.636780 &#xA;&#x9;C1672.044556,644.044983 1670.597412,659.998352 1677.959351,675.743591 &#xA;&#x9;C1684.919067,690.628906 1698.836914,695.341675 1714.484253,695.014160 &#xA;&#x9;C1729.685791,694.695984 1740.746338,686.410828 1749.771362,675.142090 &#xA;&#x9;C1762.186401,659.640381 1768.869019,641.502136 1773.058716,621.436890 &#xA;z"></path>
<path fill="#FFFFFF" opacity="1.000000" stroke="none" d="&#xA;M722.885010,523.965271 &#xA;&#x9;C749.607239,512.070862 776.336182,509.470123 802.561829,523.289734 &#xA;&#x9;C825.636902,535.449036 838.428955,556.088562 844.200378,580.921570 &#xA;&#x9;C852.739075,617.661499 848.443054,652.647217 825.540894,683.505615 &#xA;&#x9;C802.377319,714.716064 769.991089,726.546753 731.933716,724.396790 &#xA;&#x9;C717.791199,723.597839 704.549194,719.358521 692.017639,712.827515 &#xA;&#x9;C691.322388,712.465149 690.579407,712.194275 689.143066,711.569580 &#xA;&#x9;C689.143066,713.519958 689.130737,714.926270 689.144958,716.332336 &#xA;&#x9;C689.421021,743.645386 689.542786,770.961792 690.113342,798.268738 &#xA;&#x9;C690.225952,803.656799 691.306458,809.326355 693.365662,814.272827 &#xA;&#x9;C694.905701,817.972168 698.233948,821.545837 701.693970,823.648010 &#xA;&#x9;C704.970520,825.638611 705.655884,827.503784 704.873657,830.926147 &#xA;&#x9;C680.457581,830.926147 656.025818,830.926147 631.294922,830.926147 &#xA;&#x9;C631.294922,829.206116 631.294922,827.470886 631.294922,825.436768 &#xA;&#x9;C641.541809,822.102722 644.974792,813.679382 645.894897,803.934631 &#xA;&#x9;C646.738708,794.997253 647.260925,785.994568 647.276001,777.019531 &#xA;&#x9;C647.387390,710.714172 647.353333,644.408569 647.304138,578.103027 &#xA;&#x9;C647.300171,572.783142 646.972290,567.453430 646.561035,562.146301 &#xA;&#x9;C645.909119,553.732971 641.250549,547.912170 633.908203,544.314026 &#xA;&#x9;C631.520569,543.143921 630.344788,541.728027 631.106018,539.431396 &#xA;&#x9;C631.571106,538.028320 632.876831,536.452148 634.208679,535.856873 &#xA;&#x9;C650.122375,528.744324 666.102051,521.778748 682.088135,514.829285 &#xA;&#x9;C686.284790,513.004944 689.076599,514.888855 689.122742,519.578613 &#xA;&#x9;C689.197571,527.171997 689.142883,534.766663 689.142883,542.306763 &#xA;&#x9;C700.480896,536.120972 711.504395,530.106689 722.885010,523.965271 &#xA;M808.143433,664.537048 &#xA;&#x9;C810.645935,649.265137 809.933533,633.986206 807.946289,618.752991 &#xA;&#x9;C805.283203,598.338989 800.425781,578.586060 789.266418,560.893250 &#xA;&#x9;C776.172058,540.132690 757.638123,529.632812 732.830139,531.095886 &#xA;&#x9;C717.437378,532.003601 704.681213,539.314514 692.370361,547.792847 &#xA;&#x9;C689.868958,549.515503 689.065735,551.365173 689.075317,554.329895 &#xA;&#x9;C689.180176,586.640015 688.814453,618.956299 689.388489,651.256531 &#xA;&#x9;C689.519592,658.635559 691.565979,666.538330 694.798645,673.195923 &#xA;&#x9;C703.185730,690.469299 716.699158,703.225342 733.916504,711.706116 &#xA;&#x9;C756.104797,722.635315 793.700989,719.576050 804.648010,681.496155 &#xA;&#x9;C806.158142,676.243103 806.937561,670.780029 808.143433,664.537048 &#xA;z"></path>
<path fill="#FFFFFF" opacity="1.000000" stroke="none" d="&#xA;M497.368713,708.821411 &#xA;&#x9;C516.505615,715.989380 535.762634,719.202515 555.440979,713.938232 &#xA;&#x9;C582.982788,706.570068 598.106445,680.292969 590.982239,653.192932 &#xA;&#x9;C587.668884,640.589050 579.054749,631.794495 569.120239,624.265259 &#xA;&#x9;C554.422363,613.125916 537.503906,606.120300 520.685120,598.900391 &#xA;&#x9;C503.602844,591.567505 486.639038,583.930115 469.871155,575.908081 &#xA;&#x9;C463.634491,572.924316 457.773010,568.890991 452.304291,564.615173 &#xA;&#x9;C432.995819,549.518494 427.935516,528.753052 430.501160,505.652252 &#xA;&#x9;C434.656555,468.237183 458.417114,447.634460 492.516541,438.514008 &#xA;&#x9;C532.177551,427.906036 571.341003,431.652069 609.168030,448.039459 &#xA;&#x9;C612.387146,449.434021 613.513611,451.270996 613.582581,454.718933 &#xA;&#x9;C613.879150,469.544281 614.371277,484.367554 614.990723,499.183258 &#xA;&#x9;C615.128967,502.489349 614.341248,504.340240 612.053223,504.240601 &#xA;&#x9;C604.746094,493.167572 599.002136,481.648407 590.707825,472.422058 &#xA;&#x9;C565.764954,444.676361 534.481018,433.688385 497.898499,443.247711 &#xA;&#x9;C469.683167,450.620575 454.823547,477.929504 462.967621,504.442444 &#xA;&#x9;C466.568237,516.164307 474.724792,524.331177 484.513947,531.091736 &#xA;&#x9;C499.141205,541.193542 515.820251,547.038330 531.962646,554.036560 &#xA;&#x9;C550.528076,562.085205 569.116577,570.136292 587.286194,579.022400 &#xA;&#x9;C598.578491,584.545105 608.218323,592.719299 615.345642,603.305176 &#xA;&#x9;C630.461609,625.756104 628.974854,649.498169 618.450134,672.727295 &#xA;&#x9;C606.499512,699.103394 584.086548,713.668518 556.881226,720.896790 &#xA;&#x9;C525.369995,729.269165 494.360870,724.874512 464.192871,714.297913 &#xA;&#x9;C452.378326,710.155884 441.326324,703.803162 430.045624,698.217712 &#xA;&#x9;C428.581970,697.493042 426.944763,695.364563 426.883881,693.827087 &#xA;&#x9;C426.112915,674.355042 425.616272,654.872253 425.044647,635.218079 &#xA;&#x9;C426.803070,634.870972 428.397125,634.556335 430.280853,634.184509 &#xA;&#x9;C443.362244,667.323242 463.473297,694.063477 497.368713,708.821411 &#xA;z"></path>
<path fill="#FFFFFF" opacity="1.000000" stroke="none" d="&#xA;M2377.945557,556.458130 &#xA;&#x9;C2375.481201,549.215515 2369.798584,545.768311 2364.090576,542.769409 &#xA;&#x9;C2362.768555,538.391663 2364.469482,536.436768 2368.430664,534.780090 &#xA;&#x9;C2383.438232,528.503906 2398.253418,521.768066 2413.144531,515.213501 &#xA;&#x9;C2419.185547,512.554443 2421.678955,514.228271 2421.680176,520.985291 &#xA;&#x9;C2421.688721,569.302734 2421.547852,617.620850 2421.789062,665.937073 &#xA;&#x9;C2421.843750,676.882324 2422.870850,687.859070 2424.093262,698.749207 &#xA;&#x9;C2424.896729,705.904358 2428.941406,711.223694 2435.657959,714.580811 &#xA;&#x9;C2437.214111,715.358582 2437.740723,718.195862 2439.146240,720.850525 &#xA;&#x9;C2422.804443,720.850525 2407.830811,721.224426 2392.888672,720.700989 &#xA;&#x9;C2384.782471,720.416992 2380.331543,714.784424 2380.062256,706.250122 &#xA;&#x9;C2379.864014,699.977356 2380.023438,693.693237 2380.023438,686.808533 &#xA;&#x9;C2373.920166,691.772278 2368.489746,696.558594 2362.685303,700.838196 &#xA;&#x9;C2347.170410,712.277466 2330.805420,722.065674 2311.165039,724.495972 &#xA;&#x9;C2299.098389,725.989136 2287.195068,724.973267 2275.796143,720.524780 &#xA;&#x9;C2258.125977,713.628845 2249.197754,699.291077 2245.317871,681.853882 &#xA;&#x9;C2242.844238,670.737061 2241.762207,659.149353 2241.487061,647.738342 &#xA;&#x9;C2240.920898,624.259705 2241.369385,600.757629 2241.271729,577.265808 &#xA;&#x9;C2241.249756,571.951904 2240.806641,566.631836 2240.375977,561.329346 &#xA;&#x9;C2239.720215,553.255371 2234.915771,548.112549 2228.267334,544.121338 &#xA;&#x9;C2226.797363,543.238892 2225.320801,541.113953 2225.268555,539.514832 &#xA;&#x9;C2225.226074,538.208313 2227.031982,536.233337 2228.480469,535.580017 &#xA;&#x9;C2243.917480,528.618225 2259.441650,521.849792 2274.953125,515.053772 &#xA;&#x9;C2280.424072,512.656860 2282.995605,514.362671 2282.997314,520.402771 &#xA;&#x9;C2283.010010,561.889160 2282.713623,603.378784 2283.182617,644.859863 &#xA;&#x9;C2283.322754,657.258362 2284.830078,669.770996 2287.056396,681.986084 &#xA;&#x9;C2290.393311,700.290894 2300.761475,710.306519 2326.000000,708.474060 &#xA;&#x9;C2339.180908,707.517090 2350.447510,701.406677 2361.030273,693.935364 &#xA;&#x9;C2380.004639,680.539673 2379.996094,680.527527 2379.996094,657.635071 &#xA;&#x9;C2379.995850,630.144104 2380.111084,602.652344 2379.905518,575.162903 &#xA;&#x9;C2379.859619,569.054688 2378.683105,562.955017 2377.945557,556.458130 &#xA;z"></path>
<path fill="#FFFFFF" opacity="1.000000" stroke="none" d="&#xA;M2142.317139,517.788696 &#xA;&#x9;C2179.054688,527.358398 2206.497070,547.669373 2216.146729,585.112549 &#xA;&#x9;C2236.381836,663.626404 2180.838379,716.567688 2123.245850,724.074219 &#xA;&#x9;C2098.813721,727.258728 2075.404541,722.631714 2053.655273,711.196228 &#xA;&#x9;C2016.278931,691.544312 1999.753296,656.202026 2003.452148,613.226440 &#xA;&#x9;C2008.274170,557.200684 2051.954590,522.464905 2094.346924,515.520752 &#xA;&#x9;C2110.377686,512.894836 2126.195801,513.932739 2142.317139,517.788696 &#xA;M2088.938477,702.588684 &#xA;&#x9;C2093.580322,705.477783 2097.939453,709.035095 2102.912842,711.141357 &#xA;&#x9;C2125.627930,720.761841 2159.147217,719.306396 2172.429443,684.105896 &#xA;&#x9;C2175.159180,676.872131 2176.982178,669.093384 2177.886230,661.408630 &#xA;&#x9;C2181.949707,626.871643 2172.499756,595.242004 2156.023926,565.315979 &#xA;&#x9;C2148.956543,552.478943 2139.752686,541.407532 2127.935059,532.611572 &#xA;&#x9;C2114.549316,522.648376 2099.642578,519.701843 2083.514404,523.449951 &#xA;&#x9;C2063.280762,528.152039 2053.256592,542.805664 2048.062500,561.467834 &#xA;&#x9;C2040.487427,588.682922 2043.541992,615.578918 2051.825195,642.079346 &#xA;&#x9;C2059.016113,665.084412 2069.416504,686.246094 2088.938477,702.588684 &#xA;z"></path>
<path fill="#FFFFFF" opacity="1.000000" stroke="none" d="&#xA;M1025.969971,568.030518 &#xA;&#x9;C1026.643677,576.582153 1027.733521,584.703369 1027.805176,592.833557 &#xA;&#x9;C1028.056152,621.324768 1027.753296,649.821716 1028.122559,678.310486 &#xA;&#x9;C1028.223022,686.061768 1029.654663,693.844299 1031.026611,701.513916 &#xA;&#x9;C1031.972900,706.803772 1035.180054,711.137573 1040.154907,713.335632 &#xA;&#x9;C1043.737671,714.918579 1044.905518,716.965271 1043.722656,720.837036 &#xA;&#x9;C1029.388062,720.837036 1014.909302,721.209229 1000.461609,720.699036 &#xA;&#x9;C991.624146,720.386963 987.089966,714.679443 987.037231,705.246643 &#xA;&#x9;C986.927246,685.585205 986.998718,665.922668 986.995605,646.260620 &#xA;&#x9;C986.995300,644.430298 986.995483,642.599976 986.359314,640.583923 &#xA;&#x9;C985.581604,643.073730 984.825012,645.570435 984.022949,648.052368 &#xA;&#x9;C976.393494,671.662109 965.749390,693.495911 946.007751,709.522705 &#xA;&#x9;C926.172424,725.625366 903.847229,729.734680 880.026245,720.292114 &#xA;&#x9;C854.886780,710.327026 846.017578,689.816101 848.436523,664.626648 &#xA;&#x9;C849.866760,649.733154 857.599121,638.620972 869.198730,629.670898 &#xA;&#x9;C884.763672,617.661194 902.858826,610.999573 921.235291,605.171021 &#xA;&#x9;C941.653015,598.695068 962.334229,593.049988 982.899597,587.039246 &#xA;&#x9;C984.165283,586.669312 985.421021,586.265198 986.645020,585.888245 &#xA;&#x9;C988.268127,542.618835 958.988403,527.246460 925.881531,530.511047 &#xA;&#x9;C903.552490,532.712830 885.843628,543.941345 871.226440,560.505249 &#xA;&#x9;C870.133667,561.743469 869.035645,562.976990 867.708008,564.474487 &#xA;&#x9;C866.362000,563.377014 865.146179,562.385681 863.602112,561.126709 &#xA;&#x9;C873.082825,549.049316 884.225586,539.237915 896.908325,531.126343 &#xA;&#x9;C921.834167,515.184265 948.984070,510.627197 977.765686,516.277832 &#xA;&#x9;C1003.719055,521.373230 1018.944519,537.800659 1024.959595,563.215576 &#xA;&#x9;C1025.304443,564.672546 1025.600464,566.141052 1025.969971,568.030518 &#xA;M916.373352,694.460144 &#xA;&#x9;C935.547424,697.705322 950.359680,689.915649 961.613342,675.250488 &#xA;&#x9;C980.347900,650.836731 988.021301,622.802429 986.988525,592.077454 &#xA;&#x9;C986.257507,592.077454 985.742676,591.963806 985.299255,592.093811 &#xA;&#x9;C968.742188,596.945251 952.094604,601.516296 935.668945,606.779541 &#xA;&#x9;C920.681274,611.581909 906.561890,618.226929 895.953003,630.482666 &#xA;&#x9;C875.688782,653.892395 886.143738,687.824219 916.373352,694.460144 &#xA;z"></path>
<path fill="#FFFFFF" opacity="1.000000" stroke="none" d="&#xA;M1272.140747,594.407593 &#xA;&#x9;C1271.305542,615.569641 1274.515015,635.470764 1285.435669,653.364990 &#xA;&#x9;C1303.962280,683.722107 1332.175659,694.265991 1366.389404,691.492737 &#xA;&#x9;C1389.737671,689.600159 1408.720703,678.713623 1424.793213,662.190186 &#xA;&#x9;C1425.468872,661.495605 1425.837891,660.502686 1426.349731,659.648743 &#xA;&#x9;C1427.031982,659.795227 1427.714111,659.941711 1428.396362,660.088196 &#xA;&#x9;C1428.661011,662.096619 1429.899048,664.775940 1429.045898,666.013672 &#xA;&#x9;C1414.096558,687.701355 1396.220459,706.246399 1371.632935,717.086853 &#xA;&#x9;C1318.016113,740.726135 1248.195679,710.361023 1237.568604,648.000610 &#xA;&#x9;C1225.896851,579.509583 1267.765381,528.301208 1320.803101,516.655701 &#xA;&#x9;C1351.717529,509.867889 1380.900757,514.122131 1405.055298,536.771851 &#xA;&#x9;C1418.565186,549.440125 1426.047729,565.268921 1427.237549,583.896301 &#xA;&#x9;C1427.290527,584.724609 1427.296021,585.559326 1427.258911,586.388184 &#xA;&#x9;C1427.245117,586.696533 1427.045776,586.996521 1426.767578,587.733337 &#xA;&#x9;C1375.710205,587.733337 1324.496460,587.733337 1273.056885,587.733337 &#xA;&#x9;C1272.721680,590.062866 1272.442749,592.001221 1272.140747,594.407593 &#xA;M1381.325684,581.996338 &#xA;&#x9;C1382.876465,581.919678 1384.427246,581.843079 1386.252808,581.752869 &#xA;&#x9;C1382.847290,561.775513 1374.927368,544.808777 1359.444214,532.026184 &#xA;&#x9;C1341.185425,516.952209 1314.378784,517.488831 1296.785645,533.325500 &#xA;&#x9;C1282.478638,546.204102 1276.599976,563.263428 1273.208374,581.996399 &#xA;&#x9;C1309.208374,581.996399 1344.783936,581.996399 1381.325684,581.996338 &#xA;z"></path>
<path fill="#FFFFFF" opacity="1.000000" stroke="none" d="&#xA;M1993.027588,550.787109 &#xA;&#x9;C1993.817261,546.806763 1994.851562,543.257446 1995.177856,539.644226 &#xA;&#x9;C1996.019531,530.323792 1993.257324,526.326782 1983.751465,522.604736 &#xA;&#x9;C1983.751465,520.982361 1983.751465,519.244080 1983.751465,517.250244 &#xA;&#x9;C1999.058960,517.250244 2014.314941,517.250244 2029.788330,517.250244 &#xA;&#x9;C2029.788330,519.041931 2029.788330,520.801758 2029.788330,522.704102 &#xA;&#x9;C2015.746582,528.619141 2006.312866,539.468018 2000.110596,552.924316 &#xA;&#x9;C1989.411255,576.137085 1979.378296,599.657166 1969.086182,623.057312 &#xA;&#x9;C1953.379517,658.768311 1937.997681,694.626770 1921.859009,730.141418 &#xA;&#x9;C1914.203613,746.987793 1904.325806,762.686035 1891.132935,775.928284 &#xA;&#x9;C1870.901611,796.235107 1846.348511,803.441040 1818.488403,797.905579 &#xA;&#x9;C1803.902344,795.007507 1801.233154,786.260742 1810.243286,774.331055 &#xA;&#x9;C1816.824341,765.617310 1825.461792,759.952637 1836.728760,761.121094 &#xA;&#x9;C1853.260864,762.835632 1869.723999,765.261658 1886.175537,767.665710 &#xA;&#x9;C1889.539307,768.157288 1891.926147,767.884155 1893.783813,764.864746 &#xA;&#x9;C1901.865967,751.728088 1910.116089,738.692688 1917.986938,725.431519 &#xA;&#x9;C1918.899536,723.894043 1918.409180,720.932617 1917.598022,719.049622 &#xA;&#x9;C1896.645142,670.413635 1875.615112,621.810364 1854.458984,573.262390 &#xA;&#x9;C1850.351440,563.837036 1845.963989,554.505920 1841.163086,545.418030 &#xA;&#x9;C1836.095337,535.824890 1828.669067,528.231873 1819.139648,522.640686 &#xA;&#x9;C1819.139648,520.915466 1819.139648,519.138916 1819.139648,517.180664 &#xA;&#x9;C1843.064087,517.180664 1866.845215,517.180664 1890.884766,517.180664 &#xA;&#x9;C1890.884766,518.988342 1890.884766,520.734314 1890.884766,522.505249 &#xA;&#x9;C1882.497437,527.197998 1881.317749,529.389954 1885.153687,538.485596 &#xA;&#x9;C1897.667114,568.157776 1910.507568,597.692383 1923.286621,627.252136 &#xA;&#x9;C1928.754395,639.900330 1934.376343,652.481995 1939.940796,665.088196 &#xA;&#x9;C1940.588135,666.554749 1941.316650,667.985535 1942.351562,670.154175 &#xA;&#x9;C1950.935913,650.304321 1959.253174,631.328125 1967.358154,612.261658 &#xA;&#x9;C1975.993164,591.948486 1984.427612,571.550110 1993.027588,550.787109 &#xA;z"></path>
<path fill="#FFFFFF" opacity="1.000000" stroke="none" d="&#xA;M1162.257690,541.732300 &#xA;&#x9;C1155.301514,535.485596 1148.714478,529.350220 1141.840942,523.554749 &#xA;&#x9;C1140.371338,522.315674 1137.709717,521.508118 1135.854370,521.859558 &#xA;&#x9;C1116.130615,525.595825 1102.569092,537.724609 1092.818604,554.567322 &#xA;&#x9;C1074.415161,586.356934 1077.590210,633.273682 1100.373047,662.062134 &#xA;&#x9;C1119.587769,686.341919 1145.650513,694.028625 1175.487793,691.494629 &#xA;&#x9;C1199.804565,689.429504 1219.206665,677.708923 1235.903687,660.038269 &#xA;&#x9;C1237.551880,661.805115 1240.728394,662.541321 1238.176514,666.160461 &#xA;&#x9;C1222.783691,687.990356 1204.706299,706.865723 1179.648438,717.522766 &#xA;&#x9;C1131.353760,738.062439 1064.349365,716.782593 1048.859863,657.455566 &#xA;&#x9;C1030.669800,587.785156 1071.546509,526.127747 1138.790894,515.447998 &#xA;&#x9;C1163.354370,511.546814 1187.984985,513.995911 1211.536133,522.966370 &#xA;&#x9;C1215.680298,524.544861 1219.678833,526.783630 1223.326416,529.319153 &#xA;&#x9;C1228.217041,532.718567 1229.231079,536.809082 1227.481689,542.469055 &#xA;&#x9;C1222.022339,560.132385 1202.653076,568.514709 1186.850708,559.331238 &#xA;&#x9;C1178.274292,554.347107 1170.603760,547.804626 1162.257690,541.732300 &#xA;z"></path>
<path fill="#FFFFFF" opacity="1.000000" stroke="none" d="&#xA;M2567.154297,521.136475 &#xA;&#x9;C2565.466064,522.227234 2563.871582,523.466003 2562.267090,523.479004 &#xA;&#x9;C2544.937256,523.619141 2527.605957,523.566467 2510.274902,523.566467 &#xA;&#x9;C2508.652588,523.566467 2507.030273,523.566467 2505.005127,523.566467 &#xA;&#x9;C2505.005127,525.401367 2505.005127,526.869324 2505.005127,528.337341 &#xA;&#x9;C2505.005127,573.331055 2504.941406,618.325012 2505.087158,663.318298 &#xA;&#x9;C2505.105225,668.929382 2505.662598,674.672119 2506.954834,680.120300 &#xA;&#x9;C2510.538086,695.230225 2522.574951,702.442810 2537.844971,699.576721 &#xA;&#x9;C2550.646729,697.173889 2560.429688,690.281128 2568.430664,679.803406 &#xA;&#x9;C2569.885498,681.145203 2571.149170,682.310730 2572.843750,683.873840 &#xA;&#x9;C2557.094482,700.336243 2542.258301,717.440918 2519.197754,723.339478 &#xA;&#x9;C2494.102295,729.758545 2474.081299,719.421570 2467.411621,696.528931 &#xA;&#x9;C2465.610840,690.349060 2464.284424,683.822693 2464.104492,677.416992 &#xA;&#x9;C2463.501709,655.937317 2463.406006,634.440796 2463.320068,612.949890 &#xA;&#x9;C2463.208740,585.120911 2463.292969,557.291077 2463.292969,529.461609 &#xA;&#x9;C2463.292969,527.662598 2463.292969,525.863586 2463.292969,523.601074 &#xA;&#x9;C2454.464600,523.601074 2446.045166,523.601074 2437.680420,523.601074 &#xA;&#x9;C2436.536377,519.455933 2437.343994,516.708313 2440.442871,514.027161 &#xA;&#x9;C2458.585205,498.330627 2476.481934,482.350250 2494.634277,466.665466 &#xA;&#x9;C2497.135498,464.504059 2500.595459,463.452057 2504.724365,461.308838 &#xA;&#x9;C2504.724365,480.882446 2504.724365,498.616394 2504.724365,516.837585 &#xA;&#x9;C2526.045410,516.837585 2546.947510,516.837585 2568.165771,516.837585 &#xA;&#x9;C2567.773438,518.487488 2567.508545,519.601379 2567.154297,521.136475 &#xA;z"></path>
<path fill="#FFFFFF" opacity="1.000000" stroke="none" d="&#xA;M1366.262695,967.159668 &#xA;&#x9;C1374.145020,962.180420 1378.777344,962.581604 1387.424561,968.736938 &#xA;&#x9;C1388.205566,964.620483 1388.205566,964.620483 1392.815308,964.774292 &#xA;&#x9;C1392.815308,977.159851 1393.367798,989.599915 1392.609619,1001.959595 &#xA;&#x9;C1392.148804,1009.472839 1384.409180,1014.980957 1376.684937,1015.111084 &#xA;&#x9;C1368.320312,1015.252014 1362.164185,1010.553406 1359.614746,1000.840088 &#xA;&#x9;C1362.168213,1001.928467 1364.523071,1002.191101 1365.545410,1003.497009 &#xA;&#x9;C1369.851074,1008.996948 1374.243530,1011.090088 1379.541870,1009.471191 &#xA;&#x9;C1385.215088,1007.737854 1387.926636,1003.511963 1387.951172,996.362305 &#xA;&#x9;C1387.954590,995.365601 1387.951660,994.368835 1387.951660,994.068970 &#xA;&#x9;C1383.621948,995.363281 1379.293701,997.352051 1374.808838,997.811279 &#xA;&#x9;C1369.880981,998.315735 1366.003296,995.268982 1363.117065,991.308533 &#xA;&#x9;C1357.789795,983.998474 1358.917847,974.764160 1366.262695,967.159668 &#xA;M1387.811157,978.983398 &#xA;&#x9;C1385.161377,970.947205 1379.579346,967.389221 1373.091797,969.601440 &#xA;&#x9;C1367.417114,971.536560 1363.961792,977.620117 1365.242188,983.421814 &#xA;&#x9;C1366.470337,988.986572 1371.705200,993.149841 1377.069702,992.828125 &#xA;&#x9;C1383.440918,992.446045 1387.591309,987.440613 1387.811157,978.983398 &#xA;z"></path>
<path fill="#FFFFFF" opacity="1.000000" stroke="none" d="&#xA;M1861.561523,981.855164 &#xA;&#x9;C1861.747437,983.177795 1861.964966,984.714905 1861.351685,985.768311 &#xA;&#x9;C1855.339111,996.096863 1842.583862,1000.631226 1831.541382,996.508484 &#xA;&#x9;C1820.169800,992.263000 1813.062256,979.592834 1815.302734,967.560730 &#xA;&#x9;C1817.411255,956.236328 1826.118408,947.548401 1836.784912,946.125732 &#xA;&#x9;C1847.433594,944.705444 1857.863159,950.464294 1862.498291,960.342468 &#xA;&#x9;C1862.698364,960.768555 1862.740234,961.268860 1862.855347,961.732971 &#xA;&#x9;C1859.543701,962.696411 1857.475464,961.717224 1855.297974,958.887512 &#xA;&#x9;C1848.249512,949.728210 1835.459473,948.816650 1827.074707,956.460999 &#xA;&#x9;C1817.888306,964.836182 1817.860962,978.993591 1827.014893,987.482422 &#xA;&#x9;C1835.306274,995.171448 1847.977661,994.200806 1855.303223,985.195618 &#xA;&#x9;C1856.902832,983.229187 1858.158447,981.073364 1861.561523,981.855164 &#xA;z"></path>
<path fill="#FFFFFF" opacity="1.000000" stroke="none" d="&#xA;M1235.005371,946.872437 &#xA;&#x9;C1238.973511,947.039734 1242.547607,946.751953 1245.915039,947.455017 &#xA;&#x9;C1258.926392,950.171387 1267.056396,961.303040 1265.932007,974.387207 &#xA;&#x9;C1264.868286,986.764832 1254.464478,996.436157 1241.485840,996.948364 &#xA;&#x9;C1236.850830,997.131287 1232.202637,996.977722 1227.216797,996.977722 &#xA;&#x9;C1227.216797,980.362366 1227.216797,963.866394 1227.216797,946.872437 &#xA;&#x9;C1229.639771,946.872437 1232.078003,946.872437 1235.005371,946.872437 &#xA;M1260.962036,972.396423 &#xA;&#x9;C1260.349243,957.450562 1248.528076,949.324158 1232.341309,952.590210 &#xA;&#x9;C1232.341309,965.654236 1232.341309,978.686279 1232.341309,991.692444 &#xA;&#x9;C1250.509521,992.650269 1258.869629,987.188477 1260.962036,972.396423 &#xA;z"></path>
<path fill="#FFFFFF" opacity="1.000000" stroke="none" d="&#xA;M786.164062,983.025452 &#xA;&#x9;C781.183411,982.154541 778.461243,983.804321 777.622131,988.478394 &#xA;&#x9;C777.364014,989.916565 776.383972,991.214233 776.037354,992.649353 &#xA;&#x9;C775.177612,996.208435 773.236328,997.756348 768.890503,996.306519 &#xA;&#x9;C776.056458,978.848877 783.222229,961.391724 790.837280,942.840027 &#xA;&#x9;C798.376038,961.201660 805.522583,978.607971 812.730957,996.164795 &#xA;&#x9;C808.309204,998.034912 806.598389,995.971436 805.457825,992.305237 &#xA;&#x9;C804.481628,989.167480 803.051941,986.170715 801.788147,983.025452 &#xA;&#x9;C796.610962,983.025452 791.624817,983.025452 786.164062,983.025452 &#xA;M795.868225,967.704224 &#xA;&#x9;C794.269958,963.810425 792.671631,959.916626 790.769226,955.281860 &#xA;&#x9;C787.580261,963.388306 784.764343,970.546387 781.865967,977.914185 &#xA;&#x9;C787.956482,977.914185 793.538208,977.914185 799.735962,977.914185 &#xA;&#x9;C798.424072,974.527222 797.249329,971.494507 795.868225,967.704224 &#xA;z"></path>
<path fill="#FFFFFF" opacity="1.000000" stroke="none" d="&#xA;M1151.621460,970.481201 &#xA;&#x9;C1153.219482,974.547546 1154.583374,978.330688 1156.236450,982.915649 &#xA;&#x9;C1145.644165,982.915649 1136.395386,982.915649 1127.077637,982.915649 &#xA;&#x9;C1128.667114,991.476318 1137.942627,994.494141 1145.480835,989.499634 &#xA;&#x9;C1147.487793,988.169922 1150.026733,987.643188 1152.678833,987.424744 &#xA;&#x9;C1150.495850,993.196594 1146.290405,996.259705 1140.566772,996.974854 &#xA;&#x9;C1133.331787,997.878784 1127.351074,995.266846 1123.437500,989.085083 &#xA;&#x9;C1119.833252,983.392273 1119.981079,977.360962 1123.626465,971.654297 &#xA;&#x9;C1129.898804,961.834961 1142.501221,961.219727 1151.621460,970.481201 &#xA;M1127.217529,976.183960 &#xA;&#x9;C1127.461548,976.978210 1127.693359,978.461609 1127.951660,978.466187 &#xA;&#x9;C1134.976074,978.592041 1142.003296,978.566711 1149.437988,978.566711 &#xA;&#x9;C1147.799194,972.775391 1144.481934,969.832642 1139.485596,969.126648 &#xA;&#x9;C1134.129761,968.369934 1130.195312,970.801025 1127.217529,976.183960 &#xA;z"></path>
<path fill="#FFFFFF" opacity="1.000000" stroke="none" d="&#xA;M1306.027100,980.164673 &#xA;&#x9;C1304.842285,981.417664 1303.669067,982.882263 1302.459473,982.913147 &#xA;&#x9;C1294.355225,983.119446 1286.243164,983.020447 1278.065552,983.020447 &#xA;&#x9;C1279.782471,991.528503 1288.965820,994.482605 1296.497192,989.487671 &#xA;&#x9;C1298.498047,988.160767 1301.036011,987.643677 1304.111694,986.450500 &#xA;&#x9;C1301.267578,994.689697 1293.185059,998.644287 1285.108887,996.781006 &#xA;&#x9;C1276.779297,994.859436 1271.150024,987.035583 1272.051636,978.633362 &#xA;&#x9;C1272.938477,970.367920 1280.234253,963.946289 1288.800781,963.890930 &#xA;&#x9;C1298.103760,963.830811 1304.852051,970.030945 1306.027100,980.164673 &#xA;M1291.010132,969.120117 &#xA;&#x9;C1283.276123,968.921570 1279.235962,971.813965 1278.257080,978.370117 &#xA;&#x9;C1285.463745,978.370117 1292.647827,978.370117 1300.351562,978.370117 &#xA;&#x9;C1299.122314,973.364136 1296.125366,970.716797 1291.010132,969.120117 &#xA;z"></path>
<path fill="#FFFFFF" opacity="1.000000" stroke="none" d="&#xA;M961.851562,992.143372 &#xA;&#x9;C955.962769,984.880371 955.434570,977.276672 960.125061,970.850464 &#xA;&#x9;C964.709045,964.570190 972.934937,962.149170 980.157532,964.954285 &#xA;&#x9;C987.566650,967.831787 991.434021,974.309998 990.679077,982.891541 &#xA;&#x9;C981.586060,982.891541 972.463318,982.891541 963.340576,982.891541 &#xA;&#x9;C962.980469,983.302063 962.620422,983.712585 962.260315,984.123108 &#xA;&#x9;C964.325928,986.289978 966.063782,988.991028 968.530334,990.504456 &#xA;&#x9;C972.712463,993.070679 977.061035,992.193909 981.253235,989.674622 &#xA;&#x9;C983.422119,988.371277 985.983582,987.721252 989.418274,986.359558 &#xA;&#x9;C984.314941,998.133667 972.213928,1000.183044 961.851562,992.143372 &#xA;M963.647766,975.528076 &#xA;&#x9;C962.618042,977.305847 962.338684,978.664917 965.152771,978.649902 &#xA;&#x9;C971.722534,978.614929 978.292664,978.638672 985.253845,978.638672 &#xA;&#x9;C984.229065,973.225830 981.112671,970.454712 976.735840,969.353760 &#xA;&#x9;C971.298645,967.986145 967.000366,970.104553 963.647766,975.528076 &#xA;z"></path>
<path fill="#FFFFFF" opacity="1.000000" stroke="none" d="&#xA;M1602.036011,964.570435 &#xA;&#x9;C1610.874146,968.303894 1614.118652,973.290710 1613.933105,982.851807 &#xA;&#x9;C1604.700073,982.851807 1595.443481,982.851807 1586.132568,982.851807 &#xA;&#x9;C1587.423706,991.348206 1596.864868,994.523376 1604.396851,989.561035 &#xA;&#x9;C1606.431763,988.220337 1608.963623,987.634094 1611.967773,986.418030 &#xA;&#x9;C1610.044067,993.055298 1604.634888,996.880493 1598.193726,997.092957 &#xA;&#x9;C1588.069458,997.426941 1580.072021,990.237854 1579.987183,980.726562 &#xA;&#x9;C1579.899414,970.892212 1587.900024,963.501648 1598.213379,963.929871 &#xA;&#x9;C1599.366699,963.977722 1600.511230,964.243408 1602.036011,964.570435 &#xA;M1586.217529,976.183960 &#xA;&#x9;C1586.461670,976.978210 1586.693481,978.461609 1586.951660,978.466187 &#xA;&#x9;C1593.976074,978.592041 1601.003296,978.566711 1608.437988,978.566711 &#xA;&#x9;C1606.799194,972.775391 1603.481934,969.832642 1598.485596,969.126648 &#xA;&#x9;C1593.129761,968.369934 1589.195312,970.801025 1586.217529,976.183960 &#xA;z"></path>
<path fill="#FFFFFF" opacity="1.000000" stroke="none" d="&#xA;M903.994568,990.900818 &#xA;&#x9;C903.994263,986.082031 904.025146,981.749512 903.984009,977.417725 &#xA;&#x9;C903.949646,973.793640 903.601013,970.227783 899.254761,969.125488 &#xA;&#x9;C894.964722,968.037537 890.137146,970.243835 888.707397,974.620178 &#xA;&#x9;C887.547913,978.168945 887.342285,982.076599 887.060425,985.850952 &#xA;&#x9;C886.801453,989.320129 887.005432,992.823914 887.005432,996.657837 &#xA;&#x9;C885.363342,996.657837 883.848938,996.657837 882.093994,996.657837 &#xA;&#x9;C882.093994,978.535645 882.093994,960.424927 882.093994,941.919067 &#xA;&#x9;C883.549500,941.919067 885.062866,941.919067 887.000732,941.919067 &#xA;&#x9;C887.000732,950.825806 887.000732,959.710022 887.000732,968.552124 &#xA;&#x9;C889.779419,966.929138 892.089661,964.818420 894.756775,964.165771 &#xA;&#x9;C902.537659,962.261597 908.508789,967.116333 909.041870,975.239624 &#xA;&#x9;C909.074585,975.738220 909.099670,976.238464 909.099976,976.737915 &#xA;&#x9;C909.103821,983.235168 909.102478,989.732422 909.102478,996.768372 &#xA;&#x9;C907.551331,996.857483 906.022766,996.945251 903.994568,997.061768 &#xA;&#x9;C903.994568,994.957458 903.994568,993.172424 903.994568,990.900818 &#xA;z"></path>
<path fill="#FFFFFF" opacity="1.000000" stroke="none" d="&#xA;M1902.164795,985.838257 &#xA;&#x9;C1897.519043,995.567505 1888.766479,999.455322 1879.895020,996.069580 &#xA;&#x9;C1871.767334,992.967712 1867.295410,984.476135 1869.516113,976.362183 &#xA;&#x9;C1871.964966,967.415283 1881.013672,962.081909 1890.129395,964.212769 &#xA;&#x9;C1899.502563,966.403931 1904.607178,975.329712 1902.164795,985.838257 &#xA;M1889.528687,969.606445 &#xA;&#x9;C1879.961426,967.874146 1872.393677,974.650513 1874.536743,983.030457 &#xA;&#x9;C1875.855469,988.186707 1880.472046,991.853699 1885.775757,991.957520 &#xA;&#x9;C1891.259399,992.064697 1896.165405,988.333313 1897.523926,983.021912 &#xA;&#x9;C1898.874756,977.740967 1896.353516,973.171448 1889.528687,969.606445 &#xA;z"></path>
<path fill="#FFFFFF" opacity="1.000000" stroke="none" d="&#xA;M2150.339355,994.871155 &#xA;&#x9;C2142.655518,989.090515 2140.237305,982.244751 2142.981445,974.813843 &#xA;&#x9;C2145.504883,967.980896 2152.035889,963.709412 2159.680176,963.892822 &#xA;&#x9;C2167.151611,964.072144 2173.428955,968.832764 2175.404541,976.067139 &#xA;&#x9;C2177.177246,982.559448 2175.619385,988.333008 2170.543701,992.750977 &#xA;&#x9;C2164.553955,997.964539 2157.792480,998.555481 2150.339355,994.871155 &#xA;M2157.794678,969.079163 &#xA;&#x9;C2150.043945,971.067383 2145.956055,976.528381 2147.475830,982.864258 &#xA;&#x9;C2148.883545,988.732727 2154.622070,992.681580 2160.585205,991.884888 &#xA;&#x9;C2166.362549,991.113098 2171.014160,985.848694 2170.862305,980.253357 &#xA;&#x9;C2170.695557,974.094299 2165.906494,969.715210 2157.794678,969.079163 &#xA;z"></path>
<path fill="#FFFFFF" opacity="1.000000" stroke="none" d="&#xA;M1694.005371,981.776123 &#xA;&#x9;C1691.959229,992.276794 1685.166870,997.712463 1675.413696,997.068787 &#xA;&#x9;C1667.451294,996.543213 1660.618530,989.843567 1660.019653,981.974670 &#xA;&#x9;C1659.314209,972.705505 1666.349243,964.484863 1675.466187,963.925110 &#xA;&#x9;C1686.266602,963.261963 1693.680664,970.224243 1694.005371,981.776123 &#xA;M1685.700928,988.172546 &#xA;&#x9;C1689.541626,982.864502 1689.860962,978.356506 1686.704590,974.006470 &#xA;&#x9;C1683.798706,970.001404 1678.526367,968.056396 1673.921387,969.454773 &#xA;&#x9;C1669.024658,970.941956 1665.921753,974.252136 1665.299805,979.353394 &#xA;&#x9;C1664.721924,984.093750 1666.889038,987.814331 1670.919312,990.203979 &#xA;&#x9;C1675.939575,993.180481 1680.756836,992.472107 1685.700928,988.172546 &#xA;z"></path>
<path fill="#FFFFFF" opacity="1.000000" stroke="none" d="&#xA;M2062.763184,985.923401 &#xA;&#x9;C2060.638428,975.622925 2065.155518,967.114319 2073.841553,964.444153 &#xA;&#x9;C2081.919922,961.960815 2090.442139,966.069641 2093.911621,974.144775 &#xA;&#x9;C2094.093018,974.567322 2094.062988,975.080750 2094.156738,975.725403 &#xA;&#x9;C2091.116943,976.754944 2089.139160,976.104187 2087.042725,973.405579 &#xA;&#x9;C2082.904785,968.079041 2076.010742,967.789856 2071.232910,972.191772 &#xA;&#x9;C2066.303955,976.732910 2066.105713,984.300110 2070.788818,989.134766 &#xA;&#x9;C2075.259766,993.750366 2081.831787,993.504272 2086.809814,988.975464 &#xA;&#x9;C2088.488281,987.448608 2091.023438,986.863708 2094.048584,985.430603 &#xA;&#x9;C2091.838379,993.328918 2086.577148,997.478516 2079.588135,997.966003 &#xA;&#x9;C2072.219727,998.479980 2066.331543,994.373596 2062.763184,985.923401 &#xA;z"></path>
<path fill="#FFFFFF" opacity="1.000000" stroke="none" d="&#xA;M844.329834,969.351685 &#xA;&#x9;C854.629089,960.008545 867.679382,962.985107 872.271301,975.673645 &#xA;&#x9;C869.351501,976.646240 867.339172,976.424194 865.179260,973.575195 &#xA;&#x9;C861.047180,968.124939 854.255432,967.728821 849.393494,972.056885 &#xA;&#x9;C844.376038,976.523499 844.043274,984.088745 848.648376,988.993164 &#xA;&#x9;C853.060547,993.692200 859.751892,993.574036 864.677124,989.110352 &#xA;&#x9;C866.393616,987.554749 868.887207,986.856506 871.804321,985.369995 &#xA;&#x9;C869.429382,997.296753 855.604919,1001.593384 846.601196,994.501343 &#xA;&#x9;C838.817871,988.370667 837.816528,978.462891 844.329834,969.351685 &#xA;z"></path>
<path fill="#FFFFFF" opacity="1.000000" stroke="none" d="&#xA;M1023.352356,973.573486 &#xA;&#x9;C1017.776794,968.481506 1012.605408,967.894775 1007.929810,971.564148 &#xA;&#x9;C1003.438904,975.088379 1002.123230,981.325745 1004.809204,986.358276 &#xA;&#x9;C1007.469055,991.342041 1012.633606,993.682861 1017.812927,991.971313 &#xA;&#x9;C1019.480652,991.420227 1020.878845,990.091736 1022.456909,989.221375 &#xA;&#x9;C1024.631958,988.021851 1026.860962,986.919678 1029.846191,985.371643 &#xA;&#x9;C1028.940063,993.817017 1019.553223,998.862671 1012.506226,997.946716 &#xA;&#x9;C1004.612732,996.920654 998.170898,989.589661 997.981689,981.339783 &#xA;&#x9;C997.793945,973.156372 1003.527161,965.597290 1011.070801,964.082031 &#xA;&#x9;C1019.572998,962.374207 1027.114136,966.843872 1029.631226,976.702393 &#xA;&#x9;C1027.619751,975.755249 1025.608154,974.808044 1023.352356,973.573486 &#xA;z"></path>
<path fill="#FFFFFF" opacity="1.000000" stroke="none" d="&#xA;M1331.353149,988.188599 &#xA;&#x9;C1329.281128,986.262756 1327.428345,984.405029 1325.197388,983.338623 &#xA;&#x9;C1322.537354,982.067078 1319.410889,981.776489 1316.739624,980.521973 &#xA;&#x9;C1311.605835,978.110901 1310.258545,972.352600 1313.727417,967.964294 &#xA;&#x9;C1317.278198,963.472473 1322.327393,963.280090 1327.387695,964.079712 &#xA;&#x9;C1331.661133,964.755005 1334.512329,967.290283 1335.804199,973.570496 &#xA;&#x9;C1332.865723,972.209412 1331.028442,971.231384 1329.098511,970.497009 &#xA;&#x9;C1326.738892,969.599304 1324.298096,968.329041 1321.899048,968.343018 &#xA;&#x9;C1320.486450,968.351257 1318.193237,970.377747 1317.940308,971.790833 &#xA;&#x9;C1317.702271,973.120667 1319.271484,975.528015 1320.667358,976.236633 &#xA;&#x9;C1323.425415,977.636902 1326.645142,978.097412 1329.615112,979.117798 &#xA;&#x9;C1333.787720,980.551086 1337.083862,982.813477 1337.010376,987.894226 &#xA;&#x9;C1336.941162,992.681824 1334.366089,995.745789 1329.005615,997.333557 &#xA;&#x9;C1320.078369,999.977844 1313.295410,996.536987 1311.239502,988.309265 &#xA;&#x9;C1314.217407,987.394775 1316.071289,988.058899 1318.217285,990.827698 &#xA;&#x9;C1319.651489,992.678101 1323.519897,993.564026 1326.123779,993.279053 &#xA;&#x9;C1328.031738,993.070251 1329.654907,990.258606 1331.353149,988.188599 &#xA;z"></path>
<path fill="#FFFFFF" opacity="1.000000" stroke="none" d="&#xA;M1742.402222,985.926270 &#xA;&#x9;C1738.714966,984.384155 1735.359131,983.025696 1731.929443,981.889648 &#xA;&#x9;C1725.931885,979.902832 1723.402222,976.832031 1724.059326,972.053162 &#xA;&#x9;C1724.710938,967.314087 1728.667969,964.177734 1734.430298,963.833130 &#xA;&#x9;C1741.916382,963.385437 1745.424927,965.563416 1747.768311,973.568909 &#xA;&#x9;C1744.857422,972.210693 1743.022217,971.222229 1741.090698,970.487061 &#xA;&#x9;C1738.730591,969.588806 1736.285278,968.326111 1733.885376,968.344482 &#xA;&#x9;C1732.474854,968.355225 1730.185425,970.391663 1729.938721,971.804565 &#xA;&#x9;C1729.705933,973.137512 1731.281494,975.508911 1732.681885,976.247681 &#xA;&#x9;C1735.267090,977.611694 1738.319092,978.075134 1741.153076,978.987000 &#xA;&#x9;C1745.528198,980.394836 1749.068115,982.576294 1749.005249,987.912354 &#xA;&#x9;C1748.947388,992.832214 1746.144409,996.002075 1740.513916,997.498596 &#xA;&#x9;C1731.785889,999.818237 1725.195435,996.309143 1723.265869,988.307251 &#xA;&#x9;C1726.243530,987.396240 1728.170044,987.947449 1730.145142,990.931335 &#xA;&#x9;C1732.551636,994.567200 1736.806763,994.351685 1740.558472,992.839478 &#xA;&#x9;C1743.580688,991.621338 1744.011230,989.078735 1742.402222,985.926270 &#xA;z"></path>
<path fill="#FFFFFF" opacity="1.000000" stroke="none" d="&#xA;M1952.100098,996.114746 &#xA;&#x9;C1950.006592,993.657776 1948.258179,991.371704 1946.157959,988.625610 &#xA;&#x9;C1950.013916,987.572876 1952.135742,987.509216 1953.960571,990.747498 &#xA;&#x9;C1955.830200,994.065002 1961.959961,994.690918 1965.230957,992.569214 &#xA;&#x9;C1968.229858,990.624023 1968.243408,986.576538 1964.926636,984.905518 &#xA;&#x9;C1962.152954,983.508057 1959.008179,982.838196 1956.013794,981.889954 &#xA;&#x9;C1949.965088,979.974487 1947.437378,976.894409 1948.053955,972.129272 &#xA;&#x9;C1948.671021,967.361084 1952.596802,964.202026 1958.358643,963.837219 &#xA;&#x9;C1965.839478,963.363647 1969.341187,965.503235 1971.828735,973.518188 &#xA;&#x9;C1968.900146,972.202271 1967.063477,971.231384 1965.126343,970.542847 &#xA;&#x9;C1962.611328,969.648865 1960.032959,968.510254 1957.448730,968.419861 &#xA;&#x9;C1956.234009,968.377319 1953.975830,970.500549 1953.929688,971.708984 &#xA;&#x9;C1953.871582,973.223877 1955.243652,975.504395 1956.632080,976.213318 &#xA;&#x9;C1959.387207,977.619751 1962.607178,978.086426 1965.578979,979.105042 &#xA;&#x9;C1969.750366,980.534790 1973.067017,982.776917 1973.011230,987.861206 &#xA;&#x9;C1972.958618,992.660950 1970.480347,996.301270 1965.002686,997.135620 &#xA;&#x9;C1960.953979,997.752197 1956.640747,996.632141 1952.100098,996.114746 &#xA;z"></path>
<path fill="#FFFFFF" opacity="1.000000" stroke="none" d="&#xA;M1069.062744,986.344482 &#xA;&#x9;C1069.776489,990.154175 1071.267212,992.841553 1075.187134,992.794556 &#xA;&#x9;C1079.040649,992.748413 1082.776245,991.647034 1084.024170,987.644287 &#xA;&#x9;C1085.184448,983.922424 1085.585083,979.916565 1085.928101,976.001343 &#xA;&#x9;C1086.230591,972.549133 1085.991455,969.049500 1085.991455,965.091125 &#xA;&#x9;C1087.628296,965.014709 1089.139038,964.944153 1090.890381,964.862366 &#xA;&#x9;C1090.890381,975.756226 1090.890381,986.305237 1090.890381,997.054810 &#xA;&#x9;C1089.283691,997.054810 1087.835938,997.054810 1086.199707,997.054810 &#xA;&#x9;C1086.067993,995.774963 1085.938110,994.513672 1085.768555,992.866821 &#xA;&#x9;C1085.077515,993.476135 1084.594604,993.861572 1084.157593,994.293579 &#xA;&#x9;C1080.337524,998.069946 1075.843872,999.023743 1070.891968,997.125671 &#xA;&#x9;C1065.907471,995.215271 1064.041504,991.068115 1063.952148,986.070068 &#xA;&#x9;C1063.828247,979.131836 1063.921021,972.189697 1063.921021,965.054932 &#xA;&#x9;C1065.694946,965.054932 1067.108276,965.054932 1069.031616,965.054932 &#xA;&#x9;C1069.031616,972.040466 1069.031616,978.975159 1069.062744,986.344482 &#xA;z"></path>
<path fill="#FFFFFF" opacity="1.000000" stroke="none" d="&#xA;M2046.806274,989.754028 &#xA;&#x9;C2048.036865,984.501221 2049.225586,979.579529 2049.913574,974.588806 &#xA;&#x9;C2050.335938,971.523926 2049.991699,968.353394 2049.991699,965.045288 &#xA;&#x9;C2051.796143,965.045288 2053.206787,965.045288 2054.865234,965.045288 &#xA;&#x9;C2054.865234,975.699097 2054.865234,986.256714 2054.865234,997.035400 &#xA;&#x9;C2053.339111,997.035400 2051.894043,997.035400 2050.239746,997.035400 &#xA;&#x9;C2050.094727,995.792236 2049.947021,994.525146 2049.780273,993.095703 &#xA;&#x9;C2049.315186,993.395813 2048.863037,993.579529 2048.556641,993.901917 &#xA;&#x9;C2044.716187,997.943115 2040.120117,999.104248 2034.942749,997.140137 &#xA;&#x9;C2029.722412,995.159546 2027.983521,990.799072 2027.923340,985.617554 &#xA;&#x9;C2027.844482,978.838135 2027.904053,972.057068 2027.904053,965.068481 &#xA;&#x9;C2029.672852,965.068481 2031.087280,965.068481 2033.008545,965.068481 &#xA;&#x9;C2033.008545,971.181580 2032.648071,977.318298 2033.161865,983.380859 &#xA;&#x9;C2033.415771,986.375671 2034.643188,991.041931 2036.571289,991.723511 &#xA;&#x9;C2039.354248,992.707214 2043.175171,990.755249 2046.806274,989.754028 &#xA;z"></path>
<path fill="#FFFFFF" opacity="1.000000" stroke="none" d="&#xA;M1939.738525,996.585632 &#xA;&#x9;C1938.119873,996.944763 1936.814453,996.944763 1934.990723,996.944763 &#xA;&#x9;C1934.990723,990.372559 1935.015503,983.940063 1934.980957,977.507812 &#xA;&#x9;C1934.961548,973.903992 1934.690430,970.154297 1930.350952,969.200012 &#xA;&#x9;C1926.032471,968.250183 1922.105103,969.817993 1920.317993,973.864868 &#xA;&#x9;C1918.894409,977.088135 1918.421387,980.839417 1918.092041,984.408508 &#xA;&#x9;C1917.728149,988.352417 1918.008789,992.355774 1918.008789,996.669678 &#xA;&#x9;C1916.345459,996.669678 1914.827271,996.669678 1913.088745,996.669678 &#xA;&#x9;C1913.088745,986.079041 1913.088745,975.515137 1913.088745,964.677490 &#xA;&#x9;C1914.634033,964.677490 1916.040894,964.677490 1917.751953,964.677490 &#xA;&#x9;C1917.899536,966.008972 1918.049072,967.357300 1918.163452,968.389832 &#xA;&#x9;C1920.794922,966.889465 1923.151733,964.782898 1925.854004,964.149170 &#xA;&#x9;C1933.663208,962.317871 1939.699585,967.144104 1939.996460,975.285889 &#xA;&#x9;C1940.250732,982.257507 1940.050781,989.245667 1939.738525,996.585632 &#xA;z"></path>
<path fill="#FFFFFF" opacity="1.000000" stroke="none" d="&#xA;M2207.991699,993.801270 &#xA;&#x9;C2207.990723,987.834961 2208.385742,982.308105 2207.816895,976.882202 &#xA;&#x9;C2207.544189,974.278259 2205.794678,970.089966 2204.102295,969.760437 &#xA;&#x9;C2201.182861,969.191833 2196.837891,970.144165 2194.838867,972.176941 &#xA;&#x9;C2192.571533,974.482727 2191.622314,978.602417 2191.190186,982.069214 &#xA;&#x9;C2190.601318,986.794006 2191.043457,991.647339 2191.043457,996.810852 &#xA;&#x9;C2189.379883,996.901794 2187.968506,996.978943 2186.206543,997.075256 &#xA;&#x9;C2186.206543,986.225586 2186.206543,975.537598 2186.206543,964.625854 &#xA;&#x9;C2187.748291,964.625854 2189.168945,964.625854 2190.773193,964.625854 &#xA;&#x9;C2190.906738,966.029297 2191.029297,967.320557 2191.168945,968.789917 &#xA;&#x9;C2191.610596,968.553223 2192.092529,968.440063 2192.347168,968.136169 &#xA;&#x9;C2196.166992,963.577515 2201.043701,962.695618 2206.284180,964.740051 &#xA;&#x9;C2211.416504,966.742188 2213.080078,971.213013 2213.091064,976.418945 &#xA;&#x9;C2213.104980,983.056458 2213.094727,989.694031 2213.094727,996.796509 &#xA;&#x9;C2211.012939,996.356201 2207.930420,999.132080 2207.991699,993.801270 &#xA;z"></path>
<path fill="#FFFFFF" opacity="1.000000" stroke="none" d="&#xA;M1548.008057,974.492554 &#xA;&#x9;C1548.033325,982.077026 1548.033325,989.213440 1548.033325,996.678223 &#xA;&#x9;C1546.435181,996.678223 1544.921509,996.678223 1542.991089,996.678223 &#xA;&#x9;C1542.991089,990.354797 1543.013306,984.073181 1542.982788,977.791870 &#xA;&#x9;C1542.964355,974.028076 1542.809937,970.041382 1538.138428,969.162048 &#xA;&#x9;C1533.592163,968.306335 1529.787964,970.138916 1527.973755,974.497314 &#xA;&#x9;C1526.856812,977.181274 1526.298340,980.216492 1526.098511,983.135681 &#xA;&#x9;C1525.794434,987.577271 1526.018799,992.054993 1526.018799,996.759583 &#xA;&#x9;C1524.311401,996.759583 1522.904785,996.759583 1521.177246,996.759583 &#xA;&#x9;C1521.177246,986.280884 1521.177246,975.711548 1521.177246,964.625244 &#xA;&#x9;C1522.578125,964.561523 1524.120605,964.491333 1525.795166,964.415161 &#xA;&#x9;C1525.938232,966.086365 1526.049072,967.381104 1526.150879,968.569763 &#xA;&#x9;C1535.599731,961.827454 1543.686035,960.257996 1548.008057,974.492554 &#xA;z"></path>
<path fill="#FFFFFF" opacity="1.000000" stroke="none" d="&#xA;M1421.516479,969.155701 &#xA;&#x9;C1413.488892,969.153870 1409.570190,972.946472 1409.125610,981.185608 &#xA;&#x9;C1408.849854,986.296448 1409.074463,991.434387 1409.074463,996.780823 &#xA;&#x9;C1407.278076,996.780823 1405.864624,996.780823 1404.158325,996.780823 &#xA;&#x9;C1404.158325,986.233032 1404.158325,975.660645 1404.158325,964.706421 &#xA;&#x9;C1405.478271,964.593323 1406.879883,964.473267 1408.642212,964.322327 &#xA;&#x9;C1408.866211,965.928040 1409.057983,967.301636 1409.275757,968.862000 &#xA;&#x9;C1409.745239,968.531860 1410.192139,968.336731 1410.473145,968.002258 &#xA;&#x9;C1414.173950,963.598511 1418.965942,962.782532 1424.014893,964.611267 &#xA;&#x9;C1429.169189,966.478271 1431.049805,970.880005 1431.076172,976.130127 &#xA;&#x9;C1431.110229,982.922058 1431.084473,989.714233 1431.084473,996.755127 &#xA;&#x9;C1429.401978,996.755127 1427.985107,996.755127 1426.422485,996.755127 &#xA;&#x9;C1426.315552,996.441895 1426.031494,995.994019 1426.028809,995.544556 &#xA;&#x9;C1425.993164,989.389160 1426.401489,983.193909 1425.805664,977.095886 &#xA;&#x9;C1425.539795,974.375488 1423.274048,971.850403 1421.516479,969.155701 &#xA;z"></path>
<path fill="#FFFFFF" opacity="1.000000" stroke="none" d="&#xA;M944.983521,973.011230 &#xA;&#x9;C944.983398,981.146240 944.983398,988.777710 944.983398,996.711121 &#xA;&#x9;C943.234497,996.711121 941.682922,996.711121 939.797729,996.711121 &#xA;&#x9;C939.797729,987.762390 939.797729,978.833557 939.797729,969.447083 &#xA;&#x9;C937.102844,969.301697 934.701660,969.172180 931.992920,969.026062 &#xA;&#x9;C931.992920,967.586670 931.992920,966.214539 931.992920,964.604248 &#xA;&#x9;C934.552368,964.443420 936.970215,964.291443 939.656189,964.122620 &#xA;&#x9;C939.656189,960.117737 939.656189,956.349670 939.656189,952.139587 &#xA;&#x9;C941.448059,952.030762 942.983154,951.937561 944.915039,951.820312 &#xA;&#x9;C944.915039,956.067749 944.915039,959.986877 944.915039,964.300049 &#xA;&#x9;C947.688354,964.300049 950.099365,964.300049 952.760254,964.300049 &#xA;&#x9;C952.760254,966.118042 952.760254,967.530334 952.760254,969.250366 &#xA;&#x9;C950.172180,969.250366 947.716003,969.250366 945.172241,969.250366 &#xA;&#x9;C945.097778,970.536438 945.040710,971.522095 944.983521,973.011230 &#xA;z"></path>
<path fill="#FFFFFF" opacity="1.000000" stroke="none" d="&#xA;M1051.548096,969.186646 &#xA;&#x9;C1048.186646,968.660706 1047.913330,970.291565 1047.943970,972.631958 &#xA;&#x9;C1048.048218,980.593872 1047.983765,988.558044 1047.983765,996.766235 &#xA;&#x9;C1046.157104,996.766235 1044.604126,996.766235 1042.715088,996.766235 &#xA;&#x9;C1042.715088,987.666565 1042.715088,978.726440 1042.715088,969.451233 &#xA;&#x9;C1039.998657,969.295471 1037.576782,969.156555 1034.973511,969.007263 &#xA;&#x9;C1034.973511,967.501831 1034.973511,966.116760 1034.973511,964.256958 &#xA;&#x9;C1037.673828,964.256958 1040.088379,964.256958 1042.765259,964.256958 &#xA;&#x9;C1042.765259,960.006104 1042.765259,956.226746 1042.765259,952.152954 &#xA;&#x9;C1044.575806,952.152954 1046.123291,952.152954 1048.020996,952.152954 &#xA;&#x9;C1048.020996,956.190247 1048.020996,960.121216 1048.020996,964.223816 &#xA;&#x9;C1050.797485,964.346130 1053.238403,964.453613 1055.840332,964.568176 &#xA;&#x9;C1055.840332,966.070679 1055.840332,967.362549 1055.840332,969.186462 &#xA;&#x9;C1054.524414,969.186462 1053.269653,969.186462 1051.548096,969.186646 &#xA;z"></path>
<path fill="#FFFFFF" opacity="1.000000" stroke="none" d="&#xA;M1567.003418,962.884277 &#xA;&#x9;C1569.473267,963.870361 1571.925659,964.377869 1574.791992,964.971069 &#xA;&#x9;C1574.842529,966.049988 1574.908081,967.447937 1574.989868,969.194702 &#xA;&#x9;C1572.229858,969.194702 1569.787354,969.194702 1567.080811,969.194702 &#xA;&#x9;C1567.080811,978.459656 1567.080811,987.397217 1567.080811,996.749329 &#xA;&#x9;C1565.307007,996.854126 1563.770020,996.944885 1561.859131,997.057800 &#xA;&#x9;C1561.859131,987.805054 1561.859131,978.885803 1561.859131,969.491150 &#xA;&#x9;C1559.157104,969.324585 1556.762573,969.177002 1553.952271,969.003784 &#xA;&#x9;C1553.880005,967.640869 1553.807373,966.271912 1553.718506,964.594910 &#xA;&#x9;C1556.497070,964.439636 1558.914062,964.304504 1561.749023,964.146057 &#xA;&#x9;C1561.749023,960.022278 1561.749023,956.112610 1561.749023,952.038086 &#xA;&#x9;C1563.618530,952.038086 1565.052856,952.038086 1566.986206,952.038086 &#xA;&#x9;C1566.986206,955.544312 1566.986206,958.974976 1567.003418,962.884277 &#xA;z"></path>
<path fill="#FFFFFF" opacity="1.000000" stroke="none" d="&#xA;M1993.631714,964.388428 &#xA;&#x9;C1998.314941,964.039001 1996.840454,966.848633 1996.794678,969.265015 &#xA;&#x9;C1994.161743,969.265015 1991.698853,969.265015 1988.998535,969.265015 &#xA;&#x9;C1988.998535,978.524170 1988.998535,987.482422 1988.998535,996.726196 &#xA;&#x9;C1987.209351,996.726196 1985.651978,996.726196 1983.762451,996.726196 &#xA;&#x9;C1983.762451,987.736084 1983.762451,978.795776 1983.762451,969.459778 &#xA;&#x9;C1981.058228,969.301758 1978.649414,969.161011 1975.963623,969.004028 &#xA;&#x9;C1975.963623,967.547913 1975.963623,966.169495 1975.963623,964.553894 &#xA;&#x9;C1978.608276,964.417053 1981.029663,964.291748 1983.710083,964.153076 &#xA;&#x9;C1983.710083,960.059631 1983.710083,956.285950 1983.710083,952.185669 &#xA;&#x9;C1985.523315,952.185669 1987.064453,952.185669 1988.972656,952.185669 &#xA;&#x9;C1988.972656,956.136353 1988.972656,960.064209 1988.972656,964.388245 &#xA;&#x9;C1990.611450,964.388245 1991.892944,964.388245 1993.631714,964.388428 &#xA;z"></path>
<path fill="#FFFFFF" opacity="1.000000" stroke="none" d="&#xA;M2106.664307,969.327759 &#xA;&#x9;C2104.197998,969.216675 2102.220459,969.216675 2099.962402,969.216675 &#xA;&#x9;C2099.962402,967.545471 2099.962402,966.167358 2099.962402,964.554382 &#xA;&#x9;C2102.608398,964.417358 2105.030762,964.291992 2107.827637,964.147156 &#xA;&#x9;C2107.827637,961.881348 2107.827637,959.928955 2107.827637,957.976562 &#xA;&#x9;C2107.827637,956.158630 2107.827637,954.340698 2107.827637,952.104065 &#xA;&#x9;C2109.501221,952.026428 2111.041504,951.954956 2112.960693,951.865967 &#xA;&#x9;C2112.960693,956.122559 2112.960693,960.046265 2112.960693,964.202698 &#xA;&#x9;C2115.732910,964.328430 2118.160156,964.438538 2120.793457,964.557983 &#xA;&#x9;C2120.793457,966.161072 2120.793457,967.585388 2120.793457,969.313721 &#xA;&#x9;C2118.138428,969.313721 2115.682373,969.313721 2112.984375,969.313721 &#xA;&#x9;C2112.984375,978.565735 2112.984375,987.517761 2112.984375,996.739990 &#xA;&#x9;C2111.188477,996.739990 2109.628174,996.739990 2107.153076,996.739990 &#xA;&#x9;C2107.153076,987.587769 2107.153076,978.513245 2106.664307,969.327759 &#xA;z"></path>
<path fill="#FFFFFF" opacity="1.000000" stroke="none" d="&#xA;M2010.020386,988.022949 &#xA;&#x9;C2010.020386,991.157471 2010.020386,993.808167 2010.020386,996.738159 &#xA;&#x9;C2008.259033,996.738159 2006.700439,996.738159 2005.035156,996.738159 &#xA;&#x9;C2005.035156,986.058777 2005.035156,975.435364 2005.035156,964.596985 &#xA;&#x9;C2006.649048,964.596985 2008.088379,964.596985 2009.736816,964.596985 &#xA;&#x9;C2009.905518,965.943054 2010.064209,967.209778 2010.229736,968.475647 &#xA;&#x9;C2011.842285,967.123657 2013.266968,965.372803 2015.107178,964.539490 &#xA;&#x9;C2016.781372,963.781189 2018.906982,964.019592 2021.237549,963.776733 &#xA;&#x9;C2021.237549,966.217163 2021.237549,968.119751 2021.237549,970.023438 &#xA;&#x9;C2014.214355,969.342834 2010.628052,972.326050 2010.093628,979.543518 &#xA;&#x9;C2009.897339,982.195984 2010.035034,984.873169 2010.020386,988.022949 &#xA;z"></path>
<path fill="#FFFFFF" opacity="1.000000" stroke="none" d="&#xA;M1716.358398,963.900757 &#xA;&#x9;C1722.015381,963.293274 1720.293457,967.140869 1720.543823,969.313538 &#xA;&#x9;C1717.663818,970.119446 1713.973389,970.046326 1712.624390,971.787415 &#xA;&#x9;C1710.571289,974.437195 1709.553223,978.277466 1709.161865,981.732849 &#xA;&#x9;C1708.606812,986.634705 1709.020996,991.646301 1709.020996,996.812195 &#xA;&#x9;C1707.300659,996.812195 1705.883057,996.812195 1704.155762,996.812195 &#xA;&#x9;C1704.155762,986.131287 1704.155762,975.451294 1704.155762,964.575378 &#xA;&#x9;C1705.709961,964.575378 1707.149902,964.575378 1708.783447,964.575378 &#xA;&#x9;C1708.935547,965.969482 1709.072266,967.223877 1709.153442,967.968201 &#xA;&#x9;C1711.369507,966.659424 1713.685547,965.291565 1716.358398,963.900757 &#xA;z"></path>
<path fill="#FFFFFF" opacity="1.000000" stroke="none" d="&#xA;M1628.020386,986.103577 &#xA;&#x9;C1628.020386,989.897827 1628.020386,993.212158 1628.020386,996.771484 &#xA;&#x9;C1626.204712,996.771484 1624.641602,996.771484 1623.066406,996.771484 &#xA;&#x9;C1623.066406,986.015381 1623.066406,975.390381 1623.066406,964.574829 &#xA;&#x9;C1624.715942,964.574829 1626.159790,964.574829 1627.791138,964.574829 &#xA;&#x9;C1627.941528,965.975220 1628.075928,967.227356 1628.102905,967.477722 &#xA;&#x9;C1631.414429,966.058228 1634.901978,964.563354 1639.270874,962.690674 &#xA;&#x9;C1639.270874,966.274048 1639.270874,968.183533 1639.265625,970.096069 &#xA;&#x9;C1632.231934,969.261108 1628.625732,972.299438 1628.080566,979.626465 &#xA;&#x9;C1627.932617,981.616028 1628.033691,983.624084 1628.020386,986.103577 &#xA;z"></path>
<path fill="#FFFFFF" opacity="1.000000" stroke="none" d="&#xA;M836.524414,965.606079 &#xA;&#x9;C836.579712,967.287476 836.579712,968.601135 836.579712,969.925232 &#xA;&#x9;C828.816345,969.474243 825.305481,972.613037 825.065979,980.353760 &#xA;&#x9;C824.897339,985.804443 825.033386,991.264648 825.033386,996.866821 &#xA;&#x9;C823.214600,996.866821 821.776367,996.866821 820.098022,996.866821 &#xA;&#x9;C820.098022,986.209473 820.098022,975.653137 820.098022,964.718994 &#xA;&#x9;C821.441101,964.581421 822.834351,964.438660 824.611450,964.256592 &#xA;&#x9;C824.861633,965.806152 825.076843,967.138916 825.335083,968.738220 &#xA;&#x9;C828.460938,965.210083 831.440857,961.695496 836.524414,965.606079 &#xA;z"></path>
<path fill="#FFFFFF" opacity="1.000000" stroke="none" d="&#xA;M1100.860474,967.689209 &#xA;&#x9;C1100.474243,962.914307 1103.586182,964.876160 1105.721924,964.206238 &#xA;&#x9;C1105.907959,965.927246 1106.045532,967.200684 1106.187378,968.475159 &#xA;&#x9;C1107.788940,967.136414 1109.208374,965.407410 1111.036133,964.571472 &#xA;&#x9;C1112.709595,963.806213 1114.824341,964.005859 1117.307861,963.714233 &#xA;&#x9;C1117.436157,966.120544 1117.536987,968.012695 1117.639648,969.939270 &#xA;&#x9;C1109.808594,969.461731 1106.372070,972.585083 1106.051636,980.338928 &#xA;&#x9;C1105.935303,983.155579 1106.023315,985.980774 1106.020996,988.802063 &#xA;&#x9;C1106.018677,991.431152 1106.020386,994.060242 1106.020386,996.851929 &#xA;&#x9;C1104.238281,996.851929 1102.805786,996.851929 1100.860474,996.851929 &#xA;&#x9;C1100.860474,987.229980 1100.860474,977.674377 1100.860474,967.689209 &#xA;z"></path>
<path fill="#FFFFFF" opacity="1.000000" stroke="none" d="&#xA;M1509.003906,955.039062 &#xA;&#x9;C1509.003906,969.141357 1509.003906,982.749451 1509.003906,996.679932 &#xA;&#x9;C1507.322632,996.679932 1505.811401,996.679932 1504.079834,996.679932 &#xA;&#x9;C1504.079834,980.221008 1504.079834,963.833191 1504.079834,947.108643 &#xA;&#x9;C1505.594116,947.108643 1507.103271,947.108643 1509.003906,947.108643 &#xA;&#x9;C1509.003906,949.627014 1509.003906,952.085999 1509.003906,955.039062 &#xA;z"></path>
<path fill="#FFFFFF" opacity="1.000000" stroke="none" d="&#xA;M1198.824585,970.355347 &#xA;&#x9;C1198.258301,976.680359 1195.359863,979.914246 1190.588989,979.993774 &#xA;&#x9;C1186.635864,980.059692 1182.803711,976.904846 1182.094849,973.001160 &#xA;&#x9;C1181.350830,968.903381 1184.065430,964.660583 1188.218750,963.430237 &#xA;&#x9;C1192.664917,962.113159 1196.435913,964.448669 1198.824585,970.355347 &#xA;z"></path>
<path fill="#FFFFFF" opacity="1.000000" stroke="none" d="&#xA;M1468.636230,963.184021 &#xA;&#x9;C1473.561646,964.561890 1476.180664,967.523071 1475.813477,972.310608 &#xA;&#x9;C1475.502563,976.363708 1472.936768,979.032959 1468.980591,979.828308 &#xA;&#x9;C1464.932739,980.642090 1461.852905,978.785828 1459.938843,975.228516 &#xA;&#x9;C1456.898926,969.578552 1460.818115,963.935730 1468.636230,963.184021 &#xA;z"></path>
<path fill="#FFFFFF" opacity="1.000000" stroke="none" d="&#xA;M1787.899658,966.186890 &#xA;&#x9;C1790.694458,971.616333 1790.306396,975.149109 1786.738525,978.013794 &#xA;&#x9;C1783.513062,980.603638 1780.077759,980.776917 1776.671265,978.397461 &#xA;&#x9;C1772.643799,975.584473 1771.825073,970.447632 1774.686401,966.613647 &#xA;&#x9;C1777.908569,962.296448 1782.465454,962.040039 1787.899658,966.186890 &#xA;z"></path>
<path fill="#FFFFFF" opacity="1.000000" stroke="none" d="&#xA;M2128.473389,996.834961 &#xA;&#x9;C2128.056396,986.056824 2128.056396,975.435791 2128.056396,964.604126 &#xA;&#x9;C2129.623779,964.604126 2131.051514,964.604126 2132.727539,964.604126 &#xA;&#x9;C2132.727539,975.355591 2132.727539,985.946472 2132.727539,996.992065 &#xA;&#x9;C2131.422607,996.992065 2130.156494,996.992065 2128.473389,996.834961 &#xA;z"></path>
<path fill="#FFFFFF" opacity="1.000000" stroke="none" d="&#xA;M918.799072,983.982300 &#xA;&#x9;C918.799133,977.348999 918.799133,971.212402 918.799133,964.739929 &#xA;&#x9;C920.433472,964.585938 921.842102,964.453186 923.624390,964.285278 &#xA;&#x9;C923.624390,975.257019 923.624390,985.961426 923.624390,996.841797 &#xA;&#x9;C922.168030,996.841797 920.728882,996.841797 918.799072,996.841797 &#xA;&#x9;C918.799072,992.676453 918.799072,988.577698 918.799072,983.982300 &#xA;z"></path>
<path fill="#FFFFFF" opacity="1.000000" stroke="none" d="&#xA;M1645.799072,971.257202 &#xA;&#x9;C1645.799072,968.821045 1645.799072,966.848633 1645.799072,964.635742 &#xA;&#x9;C1647.584717,964.635742 1649.008301,964.635742 1650.704346,964.635742 &#xA;&#x9;C1650.704346,975.289673 1650.704346,985.873901 1650.704346,996.737244 &#xA;&#x9;C1649.177612,996.737244 1647.614746,996.737244 1645.799072,996.737244 &#xA;&#x9;C1645.799072,988.349976 1645.799072,980.035522 1645.799072,971.257202 &#xA;z"></path>
<path fill="#FFFFFF" opacity="1.000000" stroke="none" d="&#xA;M1349.604736,964.919556 &#xA;&#x9;C1349.865723,975.731567 1349.865723,986.198486 1349.865723,996.838135 &#xA;&#x9;C1348.171021,996.838135 1346.730469,996.838135 1345.043945,996.838135 &#xA;&#x9;C1345.043945,986.183105 1345.043945,975.604858 1345.043945,964.574341 &#xA;&#x9;C1346.504639,964.574341 1347.924072,964.574341 1349.604736,964.919556 &#xA;z"></path>
<path fill="#FFFFFF" opacity="1.000000" stroke="none" d="&#xA;M2130.020264,952.500244 &#xA;&#x9;C2131.360596,953.819397 2132.569824,955.110413 2133.187988,956.640137 &#xA;&#x9;C2133.333740,957.000549 2131.426025,958.866882 2130.574219,958.791016 &#xA;&#x9;C2129.385498,958.685120 2127.286865,957.257507 2127.374268,956.656189 &#xA;&#x9;C2127.583984,955.209717 2128.839600,953.915100 2130.020264,952.500244 &#xA;z"></path>
<path fill="#FFFFFF" opacity="1.000000" stroke="none" d="&#xA;M1645.243408,954.548828 &#xA;&#x9;C1647.073975,953.899109 1648.767578,953.419678 1650.452026,953.449524 &#xA;&#x9;C1650.734009,953.454529 1651.464844,955.854858 1651.099854,956.808411 &#xA;&#x9;C1650.738281,957.752869 1648.592285,959.034912 1648.370850,958.844055 &#xA;&#x9;C1647.094238,957.743591 1646.156006,956.250305 1645.243408,954.548828 &#xA;z"></path>
<path fill="#FFFFFF" opacity="1.000000" stroke="none" d="&#xA;M1350.497803,955.986816 &#xA;&#x9;C1349.083618,957.164551 1347.785278,958.416809 1346.338623,958.621277 &#xA;&#x9;C1345.734619,958.706665 1344.312744,956.608154 1344.209351,955.420227 &#xA;&#x9;C1344.135376,954.568787 1346.005005,952.665955 1346.366333,952.812622 &#xA;&#x9;C1347.892822,953.432007 1349.179321,954.643433 1350.497803,955.986816 &#xA;z"></path>
<path fill="#FFFFFF" opacity="1.000000" stroke="none" d="&#xA;M923.625244,957.906738 &#xA;&#x9;C921.700317,957.813599 919.967224,957.651367 918.458313,956.983093 &#xA;&#x9;C918.167725,956.854431 918.364624,954.370728 919.048889,953.646729 &#xA;&#x9;C919.739441,952.916138 922.192566,952.544800 922.355713,952.843811 &#xA;&#x9;C923.148315,954.297302 923.431519,956.028564 923.625244,957.906738 &#xA;z"></path>
<path fill="#0A0A0A" opacity="1.000000" stroke="none" d="&#xA;M1773.010742,621.861694 &#xA;&#x9;C1768.869019,641.502136 1762.186401,659.640381 1749.771362,675.142090 &#xA;&#x9;C1740.746338,686.410828 1729.685791,694.695984 1714.484253,695.014160 &#xA;&#x9;C1698.836914,695.341675 1684.919067,690.628906 1677.959351,675.743591 &#xA;&#x9;C1670.597412,659.998352 1672.044556,644.044983 1684.067017,630.636780 &#xA;&#x9;C1688.967285,625.171814 1695.071777,620.408386 1701.428589,616.695740 &#xA;&#x9;C1724.098877,603.455322 1750.131958,599.885437 1775.813110,591.126953 &#xA;&#x9;C1774.827271,601.974854 1773.942993,611.705872 1773.010742,621.861694 &#xA;z"></path>
<path fill="#0A0A0A" opacity="1.000000" stroke="none" d="&#xA;M808.099365,664.975586 &#xA;&#x9;C806.937561,670.780029 806.158142,676.243103 804.648010,681.496155 &#xA;&#x9;C793.700989,719.576050 756.104797,722.635315 733.916504,711.706116 &#xA;&#x9;C716.699158,703.225342 703.185730,690.469299 694.798645,673.195923 &#xA;&#x9;C691.565979,666.538330 689.519592,658.635559 689.388489,651.256531 &#xA;&#x9;C688.814453,618.956299 689.180176,586.640015 689.075317,554.329895 &#xA;&#x9;C689.065735,551.365173 689.868958,549.515503 692.370361,547.792847 &#xA;&#x9;C704.681213,539.314514 717.437378,532.003601 732.830139,531.095886 &#xA;&#x9;C757.638123,529.632812 776.172058,540.132690 789.266418,560.893250 &#xA;&#x9;C800.425781,578.586060 805.283203,598.338989 807.946289,618.752991 &#xA;&#x9;C809.933533,633.986206 810.645935,649.265137 808.099365,664.975586 &#xA;z"></path>
<path fill="#0A0A0A" opacity="1.000000" stroke="none" d="&#xA;M2088.668945,702.355042 &#xA;&#x9;C2069.416504,686.246094 2059.016113,665.084412 2051.825195,642.079346 &#xA;&#x9;C2043.541992,615.578918 2040.487427,588.682922 2048.062500,561.467834 &#xA;&#x9;C2053.256592,542.805664 2063.280762,528.152039 2083.514404,523.449951 &#xA;&#x9;C2099.642578,519.701843 2114.549316,522.648376 2127.935059,532.611572 &#xA;&#x9;C2139.752686,541.407532 2148.956543,552.478943 2156.023926,565.315979 &#xA;&#x9;C2172.499756,595.242004 2181.949707,626.871643 2177.886230,661.408630 &#xA;&#x9;C2176.982178,669.093384 2175.159180,676.872131 2172.429443,684.105896 &#xA;&#x9;C2159.147217,719.306396 2125.627930,720.761841 2102.912842,711.141357 &#xA;&#x9;C2097.939453,709.035095 2093.580322,705.477783 2088.668945,702.355042 &#xA;z"></path>
<path fill="#0A0A0A" opacity="1.000000" stroke="none" d="&#xA;M915.960510,694.344849 &#xA;&#x9;C886.143738,687.824219 875.688782,653.892395 895.953003,630.482666 &#xA;&#x9;C906.561890,618.226929 920.681274,611.581909 935.668945,606.779541 &#xA;&#x9;C952.094604,601.516296 968.742188,596.945251 985.299255,592.093811 &#xA;&#x9;C985.742676,591.963806 986.257507,592.077454 986.988525,592.077454 &#xA;&#x9;C988.021301,622.802429 980.347900,650.836731 961.613342,675.250488 &#xA;&#x9;C950.359680,689.915649 935.547424,697.705322 915.960510,694.344849 &#xA;z"></path>
<path fill="#0A0A0A" opacity="1.000000" stroke="none" d="&#xA;M1380.842651,581.996338 &#xA;&#x9;C1344.783936,581.996399 1309.208374,581.996399 1273.208374,581.996399 &#xA;&#x9;C1276.599976,563.263428 1282.478638,546.204102 1296.785645,533.325500 &#xA;&#x9;C1314.378784,517.488831 1341.185425,516.952209 1359.444214,532.026184 &#xA;&#x9;C1374.927368,544.808777 1382.847290,561.775513 1386.252808,581.752869 &#xA;&#x9;C1384.427246,581.843079 1382.876465,581.919678 1380.842651,581.996338 &#xA;z"></path>
<path fill="#0A0A0A" opacity="1.000000" stroke="none" d="&#xA;M1387.850342,979.381287 &#xA;&#x9;C1387.591309,987.440613 1383.440918,992.446045 1377.069702,992.828125 &#xA;&#x9;C1371.705200,993.149841 1366.470337,988.986572 1365.242188,983.421814 &#xA;&#x9;C1363.961792,977.620117 1367.417114,971.536560 1373.091797,969.601440 &#xA;&#x9;C1379.579346,967.389221 1385.161377,970.947205 1387.850342,979.381287 &#xA;z"></path>
<path fill="#0A0A0A" opacity="1.000000" stroke="none" d="&#xA;M1260.950684,972.821045 &#xA;&#x9;C1258.869629,987.188477 1250.509521,992.650269 1232.341309,991.692444 &#xA;&#x9;C1232.341309,978.686279 1232.341309,965.654236 1232.341309,952.590210 &#xA;&#x9;C1248.528076,949.324158 1260.349243,957.450562 1260.950684,972.821045 &#xA;z"></path>
<path fill="#0A0A0A" opacity="1.000000" stroke="none" d="&#xA;M795.971436,968.083008 &#xA;&#x9;C797.249329,971.494507 798.424072,974.527222 799.735962,977.914185 &#xA;&#x9;C793.538208,977.914185 787.956482,977.914185 781.865967,977.914185 &#xA;&#x9;C784.764343,970.546387 787.580261,963.388306 790.769226,955.281860 &#xA;&#x9;C792.671631,959.916626 794.269958,963.810425 795.971436,968.083008 &#xA;z"></path>
<path fill="#0A0A0A" opacity="1.000000" stroke="none" d="&#xA;M1127.433350,975.854675 &#xA;&#x9;C1130.195312,970.801025 1134.129761,968.369934 1139.485596,969.126648 &#xA;&#x9;C1144.481934,969.832642 1147.799194,972.775391 1149.437988,978.566711 &#xA;&#x9;C1142.003296,978.566711 1134.976074,978.592041 1127.951660,978.466187 &#xA;&#x9;C1127.693359,978.461609 1127.461548,976.978210 1127.433350,975.854675 &#xA;z"></path>
<path fill="#0A0A0A" opacity="1.000000" stroke="none" d="&#xA;M1291.402100,969.203003 &#xA;&#x9;C1296.125366,970.716797 1299.122314,973.364136 1300.351562,978.370117 &#xA;&#x9;C1292.647827,978.370117 1285.463745,978.370117 1278.257080,978.370117 &#xA;&#x9;C1279.235962,971.813965 1283.276123,968.921570 1291.402100,969.203003 &#xA;z"></path>
<path fill="#0A0A0A" opacity="1.000000" stroke="none" d="&#xA;M963.821594,975.176392 &#xA;&#x9;C967.000366,970.104553 971.298645,967.986145 976.735840,969.353760 &#xA;&#x9;C981.112671,970.454712 984.229065,973.225830 985.253845,978.638672 &#xA;&#x9;C978.292664,978.638672 971.722534,978.614929 965.152771,978.649902 &#xA;&#x9;C962.338684,978.664917 962.618042,977.305847 963.821594,975.176392 &#xA;z"></path>
<path fill="#0A0A0A" opacity="1.000000" stroke="none" d="&#xA;M1586.433350,975.854675 &#xA;&#x9;C1589.195312,970.801025 1593.129761,968.369934 1598.485596,969.126648 &#xA;&#x9;C1603.481934,969.832642 1606.799194,972.775391 1608.437988,978.566711 &#xA;&#x9;C1601.003296,978.566711 1593.976074,978.592041 1586.951660,978.466187 &#xA;&#x9;C1586.693481,978.461609 1586.461670,976.978210 1586.433350,975.854675 &#xA;z"></path>
<path fill="#0A0A0A" opacity="1.000000" stroke="none" d="&#xA;M1889.898438,969.738953 &#xA;&#x9;C1896.353516,973.171448 1898.874756,977.740967 1897.523926,983.021912 &#xA;&#x9;C1896.165405,988.333313 1891.259399,992.064697 1885.775757,991.957520 &#xA;&#x9;C1880.472046,991.853699 1875.855469,988.186707 1874.536743,983.030457 &#xA;&#x9;C1872.393677,974.650513 1879.961426,967.874146 1889.898438,969.738953 &#xA;z"></path>
<path fill="#0A0A0A" opacity="1.000000" stroke="none" d="&#xA;M2158.197266,969.059570 &#xA;&#x9;C2165.906494,969.715210 2170.695557,974.094299 2170.862305,980.253357 &#xA;&#x9;C2171.014160,985.848694 2166.362549,991.113098 2160.585205,991.884888 &#xA;&#x9;C2154.622070,992.681580 2148.883545,988.732727 2147.475830,982.864258 &#xA;&#x9;C2145.956055,976.528381 2150.043945,971.067383 2158.197266,969.059570 &#xA;z"></path>
<path fill="#0A0A0A" opacity="1.000000" stroke="none" d="&#xA;M1685.431763,988.440674 &#xA;&#x9;C1680.756836,992.472107 1675.939575,993.180481 1670.919312,990.203979 &#xA;&#x9;C1666.889038,987.814331 1664.721924,984.093750 1665.299805,979.353394 &#xA;&#x9;C1665.921753,974.252136 1669.024658,970.941956 1673.921387,969.454773 &#xA;&#x9;C1678.526367,968.056396 1683.798706,970.001404 1686.704590,974.006470 &#xA;&#x9;C1689.860962,978.356506 1689.541626,982.864502 1685.431763,988.440674 &#xA;z"></path>
</svg>